<?xml version="1.0" encoding="utf-8"?>
<!-- Generator: Adobe Illustrator 24.2.1, SVG Export Plug-In . SVG Version: 6.00 Build 0)  -->
<svg version="1.1" id="Layer_1" xmlns="http://www.w3.org/2000/svg" xmlns:xlink="http://www.w3.org/1999/xlink" x="0px" y="0px"
	 viewBox="0 0 217.16 217.7" style="enable-background:new 0 0 217.16 217.7;" xml:space="preserve">
<style type="text/css">
	.st0{fill:#FFFFFF;}
</style>
<g>
	<path class="st0" d="M0,115.49c0-4.24,0-8.48,0-12.72c0.12-0.61,0.32-1.22,0.36-1.83c1.06-15.15,5.06-29.49,12.39-42.76
		c16.89-30.58,42.54-49.3,76.9-55.9c4.14-0.8,8.37-1.15,12.55-1.71c4.24,0,8.48,0,12.72,0c0.55,0.12,1.09,0.31,1.64,0.35
		c15.15,1.03,29.56,4.93,42.79,12.34c35.68,19.98,55.09,50.51,57.61,91.35c1.21,19.58-3.01,38.32-12.61,55.46
		c-19.93,35.6-50.48,54.94-91.23,57.46c-19.58,1.21-38.26-3.1-55.48-12.57C27.03,188.1,8.31,162.41,1.71,128.03
		C0.92,123.89,0.56,119.67,0,115.49z M199.75,109.1c-0.02-50.23-40.93-91.14-91.16-91.15c-50.23-0.01-91.16,40.87-91.21,91.1
		c-0.05,50.3,40.96,91.31,91.26,91.26C158.88,200.26,199.77,159.32,199.75,109.1z"/>
</g>
<path class="st0" d="M151.69,103.11l-61.15-35.3c-4.64-2.68-10.44,0.67-10.44,6.03v70.61c0,5.36,5.8,8.71,10.44,6.03l61.15-35.3
	C156.33,112.49,156.33,105.79,151.69,103.11z"/>
</svg>
