<?xml version="1.0" encoding="utf-8"?>
<!-- Generator: Adobe Illustrator 24.2.1, SVG Export Plug-In . SVG Version: 6.00 Build 0)  -->
<svg version="1.1" id="Layer_1" xmlns="http://www.w3.org/2000/svg" xmlns:xlink="http://www.w3.org/1999/xlink" x="0px" y="0px"
	 viewBox="0 0 383.29 357.61" style="enable-background:new 0 0 383.29 357.61;" xml:space="preserve">
<style type="text/css">
	.st0{fill:#FFFFFF;}
</style>
<g>
	<path class="st0" d="M0,124.15c2.07-8.32,5.97-15.55,14.16-19.01c4.22-1.79,9.1-2.71,13.7-2.79c17.7-0.31,35.42-0.05,53.13-0.23
		c2.26-0.02,4.94-0.89,6.7-2.28c39.8-31.68,79.5-63.49,119.21-95.29c4.03-3.23,8.2-5.67,13.66-4.01c5.37,1.63,8.85,5.82,9.25,11.39
		c0.09,1.24,0.08,2.49,0.08,3.74c0,108.75-0.01,217.5,0.04,326.26c0,4.8-0.59,9.21-4.44,12.56c-5.14,4.47-11.59,4.15-18.01-0.97
		c-15.3-12.21-30.57-24.46-45.86-36.69c-24.73-19.79-49.43-39.6-74.25-59.28c-1.58-1.25-4-2.02-6.04-2.04
		c-17.96-0.16-35.92-0.04-53.88-0.11c-14.2-0.05-22.81-6.62-26.84-20.23c-0.17-0.58-0.41-1.14-0.62-1.71C0,197.01,0,160.58,0,124.15
		z M204.13,318.04c0-93.15,0-185.51,0-278.31c-0.94,0.67-1.55,1.06-2.11,1.5c-32.63,26.09-65.27,52.17-97.81,78.38
		c-1.18,0.95-1.91,3.15-1.91,4.76c-0.11,36.3-0.06,72.6-0.13,108.9c0,2.34,0.69,3.86,2.55,5.34c25.86,20.58,51.64,41.25,77.45,61.9
		C189.35,306.26,196.54,311.98,204.13,318.04z M76.41,128.09c-17.03,0-33.87,0-50.65,0c0,34.03,0,67.74,0,101.5
		c17,0,33.76,0,50.65,0C76.41,195.63,76.41,161.92,76.41,128.09z"/>
	<path class="st0" d="M383.29,183.24c-0.66,43.95-17.51,85.87-51.5,120.74c-5.89,6.04-13.46,6.5-18.92,1.25
		c-5.35-5.14-5.22-12.97,0.57-18.95c16.46-17.01,28.85-36.49,36.28-59.03c7.54-22.86,9.87-46.17,6.37-70.06
		c-4.86-33.15-19.16-61.58-42.44-85.56c-3.98-4.1-5.81-8.69-3.92-14.26c1.68-4.95,5.33-7.75,10.45-8.44
		c4.87-0.66,8.59,1.57,11.91,4.97c21.81,22.3,36.93,48.42,45.08,78.54C381.26,147.55,383.18,162.97,383.29,183.24z"/>
	<path class="st0" d="M332.07,181.43c-0.43,32.14-12.49,61.98-36.64,86.85c-5.4,5.56-13.06,6.02-18.38,1.11
		c-5.31-4.91-5.64-12.64-0.29-18.36c8.59-9.18,15.75-19.21,21.08-30.65c16.32-35.03,9.22-80.98-17.09-109.33
		c-1.61-1.74-3.24-3.46-4.73-5.3c-4.41-5.46-3.94-12.95,1.04-17.55c5.11-4.72,12.95-4.72,17.81,0.62
		c5.53,6.07,11.08,12.24,15.68,19.01C325.06,129.25,331.98,153.13,332.07,181.43z"/>
</g>
</svg>
